<?xml version="1.0" standalone="no"?>
<!DOCTYPE svg PUBLIC "-//W3C//DTD SVG 20010904//EN"
 "http://www.w3.org/TR/2001/REC-SVG-20010904/DTD/svg10.dtd">
<svg version="1.0" xmlns="http://www.w3.org/2000/svg"
 width="640.000000pt" height="1280.000000pt" viewBox="0 0 640.000000 1280.000000"
 preserveAspectRatio="xMidYMid meet">
<metadata>
Created by potrace 1.15, written by Peter Selinger 2001-2017
</metadata>
<g transform="translate(0.000000,1280.000000) scale(0.100000,-0.100000)"
fill="#000000" stroke="none">
<path d="M2749 12788 c-1 -7 -1 -16 -1 -20 1 -3 -16 -4 -37 -1 -21 3 -48 0
-60 -6 -12 -7 -77 -17 -144 -22 -186 -15 -318 -47 -440 -105 -31 -15 -59 -21
-76 -18 -22 5 -33 -1 -59 -30 -18 -20 -32 -32 -32 -27 0 6 -9 15 -20 21 -31
17 -90 -20 -191 -118 -69 -65 -92 -83 -101 -74 -47 47 -186 -69 -399 -333
-100 -124 -288 -377 -347 -468 -126 -193 -211 -405 -237 -593 -9 -60 -25 -152
-36 -204 -11 -52 -26 -142 -35 -200 -8 -58 -32 -179 -54 -270 -176 -742 -230
-1040 -252 -1398 -25 -393 28 -710 153 -918 75 -125 211 -229 349 -268 59 -16
200 -32 200 -23 0 4 -13 13 -30 22 -58 30 -119 149 -154 302 -19 85 -20 123
-2 73 43 -117 130 -252 216 -335 48 -48 50 -50 28 -57 -19 -5 -18 -6 10 -7 20
-1 52 -14 78 -32 70 -48 204 -107 292 -129 106 -26 296 -41 407 -32 l90 8 -55
17 c-30 9 -67 25 -82 35 -72 48 -156 145 -214 247 l-28 50 65 -61 c142 -133
293 -205 504 -239 97 -16 347 -19 380 -5 18 8 18 9 -5 9 -83 3 -229 124 -308
256 -23 38 -40 70 -38 72 1 2 36 -9 77 -24 41 -14 128 -40 194 -57 l120 -32 8
-69 c8 -75 2 -157 -15 -217 -14 -46 -10 -46 -193 -8 l-140 29 -28 -32 c-15
-18 -39 -56 -54 -85 -29 -60 -27 -108 8 -155 11 -16 19 -30 17 -32 -1 -1 -28
-15 -58 -30 -205 -102 -361 -291 -399 -485 -6 -30 -18 -152 -26 -270 -8 -118
-20 -242 -25 -275 -11 -64 -13 -59 44 -100 19 -14 19 -18 -12 -202 -18 -103
-59 -352 -92 -553 -87 -531 -117 -666 -173 -775 -25 -51 -136 -166 -196 -204
-52 -33 -224 -104 -320 -132 -35 -10 -120 -23 -190 -29 -69 -6 -154 -13 -188
-16 -113 -10 -97 -33 97 -135 167 -88 291 -161 288 -169 -2 -4 -36 -35 -75
-69 -69 -59 -101 -97 -89 -108 19 -19 288 117 482 245 256 170 337 238 443
369 51 65 116 151 145 191 l51 74 7 -81 c4 -45 12 -107 19 -139 6 -31 12 -92
13 -134 1 -66 4 -80 25 -101 l23 -26 -42 -113 c-95 -253 -222 -574 -299 -754
-44 -105 -81 -202 -81 -215 0 -44 27 -67 108 -93 166 -52 469 -111 742 -145
l135 -16 8 -35 c14 -62 195 -1181 211 -1305 10 -76 16 -197 16 -335 l0 -216
-85 -128 c-101 -151 -155 -254 -155 -295 0 -73 94 -133 356 -226 87 -31 206
-77 264 -102 139 -59 239 -82 389 -90 112 -6 125 -4 137 12 10 13 35 20 103
26 119 11 192 31 331 89 63 27 178 71 255 98 249 88 334 138 354 210 8 27 3
44 -30 112 -21 44 -79 140 -129 213 -123 181 -114 171 -140 157 -18 -9 -24 -9
-30 0 -11 18 -79 445 -90 568 -5 56 -14 421 -20 810 -11 746 -12 787 -24 813
-6 13 18 34 108 98 294 207 449 371 449 475 0 80 -99 208 -311 403 l-129 118
23 35 c12 19 27 58 33 85 6 28 20 84 31 125 41 146 41 443 1 705 -10 66 -18
121 -16 122 1 2 24 -25 52 -60 163 -200 586 -558 739 -625 321 -141 680 -251
818 -252 48 0 49 0 31 20 -9 10 -58 40 -108 66 l-90 47 104 101 c57 56 141
135 187 176 47 42 84 84 85 95 2 18 -3 20 -43 17 -25 -1 -91 -11 -148 -22
-162 -31 -250 -35 -402 -15 -158 20 -225 40 -321 98 -160 95 -191 148 -519
907 -104 239 -200 460 -213 490 l-25 55 30 35 c33 39 88 144 108 203 10 32 10
40 -3 50 -23 18 -102 117 -229 288 -64 86 -141 177 -170 203 -97 85 -241 144
-391 161 -54 6 -57 8 -51 28 18 57 2 110 -48 164 l-30 31 43 6 c24 3 76 7 114
10 89 7 202 36 297 76 65 27 101 48 188 107 16 10 10 1 -15 -26 -47 -50 -108
-88 -179 -112 l-51 -16 105 -8 c203 -14 412 22 576 100 112 52 179 101 264
191 137 147 230 370 261 627 6 51 13 94 15 96 2 2 4 -79 4 -181 0 -264 -28
-391 -101 -459 -37 -35 -35 -35 61 -8 109 30 186 75 265 154 238 238 276 660
114 1285 -70 271 -188 592 -441 1205 l-75 180 -8 130 c-4 72 -7 144 -7 160 1
63 22 333 31 395 9 71 2 101 -32 138 -28 31 -136 62 -212 62 l-62 0 -63 76
c-34 42 -110 131 -169 198 l-106 121 -1 100 c-1 112 -19 171 -62 205 -21 17
-40 20 -142 20 -111 0 -120 2 -173 30 -60 32 -96 37 -115 18 -9 -9 -20 -4 -50
24 -85 82 -159 118 -178 87 -4 -7 -18 3 -36 25 -41 50 -68 63 -84 42 -10 -15
-17 -13 -71 19 -79 47 -200 90 -320 114 -121 24 -377 45 -401 32 -26 -13 -54
-8 -89 17 -35 25 -52 28 -54 10z m1152 -4870 c-96 -187 -218 -318 -322 -343
-25 -6 -25 -5 -52 112 -15 65 -27 123 -27 129 0 6 57 29 128 53 70 23 168 61
217 85 50 24 91 42 93 41 1 -1 -15 -36 -37 -77z m-431 -5378 c38 -507 77 -908
105 -1070 21 -121 102 -377 223 -703 l40 -108 -62 -43 c-88 -63 -227 -153
-259 -167 -25 -11 -34 -7 -156 75 -71 48 -146 102 -166 119 l-36 32 39 225
c71 396 76 443 75 615 -1 178 -57 877 -96 1210 -2 17 14 23 127 52 71 18 131
35 134 38 3 3 7 4 8 2 2 -1 12 -126 24 -277z"/>
<path d="M5125 7910 c-7 -12 2 -12 30 0 19 8 19 9 -2 9 -12 1 -25 -3 -28 -9z"/>
<path d="M1988 7543 c7 -3 16 -2 19 1 4 3 -2 6 -13 5 -11 0 -14 -3 -6 -6z"/>
<path d="M1938 7533 c6 -2 18 -2 25 0 6 3 1 5 -13 5 -14 0 -19 -2 -12 -5z"/>
</g>
</svg>
